<svg width="155" height="42" viewBox="0 0 155 42" fill="none" xmlns="http://www.w3.org/2000/svg">
<path d="M0.210938 26.5547L2.76562 25.5234C2.95312 26.1641 3.26562 26.7031 3.70312 27.1406C4.15625 27.5625 4.70312 27.7734 5.34375 27.7734C6.125 27.7734 6.72656 27.4766 7.14844 26.8828C7.57031 26.2891 7.78125 25.4297 7.78125 24.3047V11.4609H10.875V24.7266C10.875 26.5391 10.3984 27.9453 9.44531 28.9453C8.50781 29.9297 7.16406 30.4219 5.41406 30.4219C3.99219 30.4219 2.84375 30.0469 1.96875 29.2969C1.10938 28.5469 0.523438 27.6328 0.210938 26.5547ZM16.5938 23.25C16.5938 24.8125 16.9141 25.9766 17.5547 26.7422C18.1953 27.5078 18.9453 27.8906 19.8047 27.8906C20.6484 27.8906 21.3906 27.5078 22.0312 26.7422C22.6719 25.9766 22.9922 24.8125 22.9922 23.25C22.9922 21.6562 22.6719 20.4844 22.0312 19.7344C21.3906 18.9688 20.6484 18.5859 19.8047 18.5859C18.9609 18.5859 18.2109 18.9688 17.5547 19.7344C16.9141 20.4844 16.5938 21.6562 16.5938 23.25ZM13.5469 23.25C13.5469 21.2344 14.0781 19.5312 15.1406 18.1406C16.2031 16.75 17.7578 16.0547 19.8047 16.0547C21.8359 16.0547 23.3828 16.75 24.4453 18.1406C25.5078 19.5312 26.0391 21.2344 26.0391 23.25C26.0391 23.875 25.9766 24.5 25.8516 25.125C25.7422 25.75 25.5391 26.3906 25.2422 27.0469C24.9453 27.6875 24.5703 28.2578 24.1172 28.7578C23.6641 29.2422 23.0625 29.6406 22.3125 29.9531C21.5781 30.2656 20.7422 30.4219 19.8047 30.4219C18.8828 30.4219 18.0469 30.2734 17.2969 29.9766C16.5625 29.6641 15.9609 29.2734 15.4922 28.8047C15.0391 28.3203 14.6562 27.7578 14.3438 27.1172C14.0469 26.4609 13.8359 25.8203 13.7109 25.1953C13.6016 24.5547 13.5469 23.9062 13.5469 23.25ZM28.6172 30V10.8516H31.5469V18C31.9062 17.4688 32.3828 17.0156 32.9766 16.6406C33.5859 16.25 34.2734 16.0547 35.0391 16.0547C36.6953 16.0547 38.0625 16.6953 39.1406 17.9766C40.2188 19.2422 40.7578 20.9922 40.7578 23.2266C40.7578 24.2422 40.6406 25.1641 40.4062 25.9922C40.1719 26.8203 39.8672 27.5078 39.4922 28.0547C39.1172 28.5859 38.6719 29.0391 38.1562 29.4141C37.6562 29.7734 37.1484 30.0312 36.6328 30.1875C36.1172 30.3438 35.5938 30.4219 35.0625 30.4219C34.2656 30.4219 33.5391 30.2109 32.8828 29.7891C32.2422 29.3516 31.7812 28.8438 31.5 28.2656V30H28.6172ZM31.5234 23.2266C31.5234 24.6641 31.8047 25.8047 32.3672 26.6484C32.9453 27.4766 33.6953 27.8906 34.6172 27.8906C35.5234 27.8906 36.2656 27.4922 36.8438 26.6953C37.4219 25.8984 37.7109 24.7422 37.7109 23.2266C37.7109 21.8047 37.4297 20.6797 36.8672 19.8516C36.3203 19.0078 35.5703 18.5859 34.6172 18.5859C33.6797 18.5859 32.9297 19.0156 32.3672 19.875C31.8047 20.7188 31.5234 21.8359 31.5234 23.2266ZM43.6875 30V11.4609H55.5V14.1094H46.7812V19.4062H54.5859V22.0078H46.7812V30H43.6875ZM57.6094 14.4609V11.2031H60.7969V14.4609H57.6094ZM57.75 30V16.4766H60.6797V30H57.75ZM64.1953 30V16.4766H67.0781V18.1875H67.1016C67.3359 17.6875 67.7656 17.2109 68.3906 16.7578C69.0312 16.2891 69.8516 16.0547 70.8516 16.0547C72.1953 16.0547 73.2656 16.4688 74.0625 17.2969C74.8594 18.125 75.2578 19.4609 75.2578 21.3047V30H72.2812V21.7031C72.2812 19.625 71.5781 18.5859 70.1719 18.5859C69.3125 18.5859 68.5938 18.9297 68.0156 19.6172C67.4531 20.3047 67.1719 21.1562 67.1719 22.1719V30H64.1953ZM77.5312 23.2266C77.5312 21.0078 78.0703 19.2578 79.1484 17.9766C80.2422 16.6953 81.625 16.0547 83.2969 16.0547C84.0938 16.0547 84.7812 16.25 85.3594 16.6406C85.9531 17.0156 86.4062 17.4609 86.7188 17.9766V10.8516H89.6719V30H86.8125V28.2422C86.5312 28.8359 86.0625 29.3516 85.4062 29.7891C84.7656 30.2109 84.0547 30.4219 83.2734 30.4219C82.5703 30.4219 81.8906 30.2891 81.2344 30.0234C80.5781 29.7578 79.9609 29.3516 79.3828 28.8047C78.8203 28.2578 78.3672 27.5078 78.0234 26.5547C77.6953 25.5859 77.5312 24.4766 77.5312 23.2266ZM80.5781 23.2266C80.5781 24.6953 80.8594 25.8438 81.4219 26.6719C82 27.4844 82.7578 27.8906 83.6953 27.8906C84.6016 27.8906 85.3359 27.4766 85.8984 26.6484C86.4766 25.8047 86.7656 24.6641 86.7656 23.2266C86.7656 21.8359 86.4844 20.7188 85.9219 19.875C85.375 19.0156 84.6328 18.5859 83.6953 18.5859C82.7109 18.5859 81.9453 19.0078 81.3984 19.8516C80.8516 20.6953 80.5781 21.8203 80.5781 23.2266ZM92.2734 23.1797C92.2734 21.0078 92.8672 19.2812 94.0547 18C95.2578 16.7031 96.7656 16.0547 98.5781 16.0547C100.359 16.0547 101.828 16.7031 102.984 18C104.141 19.2969 104.719 20.9844 104.719 23.0625C104.719 23.4688 104.695 23.8672 104.648 24.2578H95.2734C95.2734 25.2891 95.5781 26.1797 96.1875 26.9297C96.8125 27.6641 97.6641 28.0312 98.7422 28.0312C99.4922 28.0312 100.148 27.8516 100.711 27.4922C101.289 27.1172 101.727 26.6406 102.023 26.0625L104.508 26.9062C104.07 27.9062 103.359 28.7422 102.375 29.4141C101.391 30.0859 100.164 30.4219 98.6953 30.4219C96.8047 30.4219 95.2578 29.7656 94.0547 28.4531C92.8672 27.1406 92.2734 25.3828 92.2734 23.1797ZM95.3203 22.1719H101.695C101.695 21.1406 101.422 20.2656 100.875 19.5469C100.328 18.8125 99.5625 18.4453 98.5781 18.4453C97.5938 18.4453 96.8047 18.8203 96.2109 19.5703C95.6328 20.3047 95.3359 21.1719 95.3203 22.1719ZM107.133 30V16.4766H109.992V17.9297C110.289 17.4297 110.711 16.9922 111.258 16.6172C111.82 16.2422 112.484 16.0547 113.25 16.0547C113.969 16.0547 114.555 16.1562 115.008 16.3594V19.0547C114.414 18.8672 113.828 18.7734 113.25 18.7734C112.234 18.7734 111.453 19.1719 110.906 19.9688C110.375 20.75 110.109 21.7969 110.109 23.1094V30H107.133Z" fill="black"/>
<path d="M129.528 27.2222L134.006 22.7438L129.528 27.2222ZM134.006 22.7438C134.438 23.183 134.953 23.5323 135.521 23.7715C136.088 24.0108 136.698 24.1354 137.314 24.1379C137.93 24.1405 138.54 24.0211 139.11 23.7866C139.679 23.5521 140.197 23.2071 140.633 22.7715C141.068 22.336 141.413 21.8185 141.648 21.2489C141.883 20.6793 142.002 20.0689 142 19.4529C141.997 18.8368 141.873 18.2274 141.634 17.6597C141.395 17.092 141.046 16.5772 140.606 16.1451C139.729 15.2816 138.546 14.7998 137.315 14.8047C136.084 14.8096 134.904 15.3007 134.034 16.1711C133.163 17.0415 132.672 18.2207 132.667 19.4518C132.661 20.6828 133.143 21.8661 134.006 22.7438V22.7438ZM149.75 21C149.75 22.8385 149.388 24.659 148.684 26.3576C147.981 28.0561 146.95 29.5995 145.65 30.8995C144.35 32.1995 142.806 33.2307 141.108 33.9343C139.409 34.6379 137.589 35 135.75 35C133.912 35 132.091 34.6379 130.392 33.9343C128.694 33.2307 127.151 32.1995 125.851 30.8995C124.55 29.5995 123.519 28.0561 122.816 26.3576C122.112 24.659 121.75 22.8385 121.75 21C121.75 17.287 123.225 13.726 125.851 11.1005C128.476 8.475 132.037 7 135.75 7C139.463 7 143.024 8.475 145.65 11.1005C148.275 13.726 149.75 17.287 149.75 21Z" stroke="#5A67D8" stroke-width="2" stroke-linecap="round" stroke-linejoin="round"/>
</svg>
