<svg width="461" height="128" viewBox="0 0 461 128" fill="none" xmlns="http://www.w3.org/2000/svg">
<path d="M0.632812 75.6641L8.29688 72.5703C8.85938 74.4922 9.79688 76.1094 11.1094 77.4219C12.4688 78.6875 14.1094 79.3203 16.0312 79.3203C18.375 79.3203 20.1797 78.4297 21.4453 76.6484C22.7109 74.8672 23.3438 72.2891 23.3438 68.9141V30.3828H32.625V70.1797C32.625 75.6172 31.1953 79.8359 28.3359 82.8359C25.5234 85.7891 21.4922 87.2656 16.2422 87.2656C11.9766 87.2656 8.53125 86.1406 5.90625 83.8906C3.32812 81.6406 1.57031 78.8984 0.632812 75.6641ZM49.7812 65.75C49.7812 70.4375 50.7422 73.9297 52.6641 76.2266C54.5859 78.5234 56.8359 79.6719 59.4141 79.6719C61.9453 79.6719 64.1719 78.5234 66.0938 76.2266C68.0156 73.9297 68.9766 70.4375 68.9766 65.75C68.9766 60.9688 68.0156 57.4531 66.0938 55.2031C64.1719 52.9062 61.9453 51.7578 59.4141 51.7578C56.8828 51.7578 54.6328 52.9062 52.6641 55.2031C50.7422 57.4531 49.7812 60.9688 49.7812 65.75ZM40.6406 65.75C40.6406 59.7031 42.2344 54.5938 45.4219 50.4219C48.6094 46.25 53.2734 44.1641 59.4141 44.1641C65.5078 44.1641 70.1484 46.25 73.3359 50.4219C76.5234 54.5938 78.1172 59.7031 78.1172 65.75C78.1172 67.625 77.9297 69.5 77.5547 71.375C77.2266 73.25 76.6172 75.1719 75.7266 77.1406C74.8359 79.0625 73.7109 80.7734 72.3516 82.2734C70.9922 83.7266 69.1875 84.9219 66.9375 85.8594C64.7344 86.7969 62.2266 87.2656 59.4141 87.2656C56.6484 87.2656 54.1406 86.8203 51.8906 85.9297C49.6875 84.9922 47.8828 83.8203 46.4766 82.4141C45.1172 80.9609 43.9688 79.2734 43.0312 77.3516C42.1406 75.3828 41.5078 73.4609 41.1328 71.5859C40.8047 69.6641 40.6406 67.7188 40.6406 65.75ZM85.8516 86V28.5547H94.6406V50C95.7188 48.4062 97.1484 47.0469 98.9297 45.9219C100.758 44.75 102.82 44.1641 105.117 44.1641C110.086 44.1641 114.188 46.0859 117.422 49.9297C120.656 53.7266 122.273 58.9766 122.273 65.6797C122.273 68.7266 121.922 71.4922 121.219 73.9766C120.516 76.4609 119.602 78.5234 118.477 80.1641C117.352 81.7578 116.016 83.1172 114.469 84.2422C112.969 85.3203 111.445 86.0938 109.898 86.5625C108.352 87.0312 106.781 87.2656 105.188 87.2656C102.797 87.2656 100.617 86.6328 98.6484 85.3672C96.7266 84.0547 95.3438 82.5312 94.5 80.7969V86H85.8516ZM94.5703 65.6797C94.5703 69.9922 95.4141 73.4141 97.1016 75.9453C98.8359 78.4297 101.086 79.6719 103.852 79.6719C106.57 79.6719 108.797 78.4766 110.531 76.0859C112.266 73.6953 113.133 70.2266 113.133 65.6797C113.133 61.4141 112.289 58.0391 110.602 55.5547C108.961 53.0234 106.711 51.7578 103.852 51.7578C101.039 51.7578 98.7891 53.0469 97.1016 55.625C95.4141 58.1562 94.5703 61.5078 94.5703 65.6797ZM131.062 86V30.3828H166.5V38.3281H140.344V54.2188H163.758V62.0234H140.344V86H131.062ZM172.828 39.3828V29.6094H182.391V39.3828H172.828ZM173.25 86V45.4297H182.039V86H173.25ZM192.586 86V45.4297H201.234V50.5625H201.305C202.008 49.0625 203.297 47.6328 205.172 46.2734C207.094 44.8672 209.555 44.1641 212.555 44.1641C216.586 44.1641 219.797 45.4062 222.188 47.8906C224.578 50.375 225.773 54.3828 225.773 59.9141V86H216.844V61.1094C216.844 54.875 214.734 51.7578 210.516 51.7578C207.938 51.7578 205.781 52.7891 204.047 54.8516C202.359 56.9141 201.516 59.4688 201.516 62.5156V86H192.586ZM232.594 65.6797C232.594 59.0234 234.211 53.7734 237.445 49.9297C240.727 46.0859 244.875 44.1641 249.891 44.1641C252.281 44.1641 254.344 44.75 256.078 45.9219C257.859 47.0469 259.219 48.3828 260.156 49.9297V28.5547H269.016V86H260.438V80.7266C259.594 82.5078 258.188 84.0547 256.219 85.3672C254.297 86.6328 252.164 87.2656 249.82 87.2656C247.711 87.2656 245.672 86.8672 243.703 86.0703C241.734 85.2734 239.883 84.0547 238.148 82.4141C236.461 80.7734 235.102 78.5234 234.07 75.6641C233.086 72.7578 232.594 69.4297 232.594 65.6797ZM241.734 65.6797C241.734 70.0859 242.578 73.5312 244.266 76.0156C246 78.4531 248.273 79.6719 251.086 79.6719C253.805 79.6719 256.008 78.4297 257.695 75.9453C259.43 73.4141 260.297 69.9922 260.297 65.6797C260.297 61.5078 259.453 58.1562 257.766 55.625C256.125 53.0469 253.898 51.7578 251.086 51.7578C248.133 51.7578 245.836 53.0234 244.195 55.5547C242.555 58.0859 241.734 61.4609 241.734 65.6797ZM276.82 65.5391C276.82 59.0234 278.602 53.8438 282.164 50C285.773 46.1094 290.297 44.1641 295.734 44.1641C301.078 44.1641 305.484 46.1094 308.953 50C312.422 53.8906 314.156 58.9531 314.156 65.1875C314.156 66.4062 314.086 67.6016 313.945 68.7734H285.82C285.82 71.8672 286.734 74.5391 288.562 76.7891C290.438 78.9922 292.992 80.0938 296.227 80.0938C298.477 80.0938 300.445 79.5547 302.133 78.4766C303.867 77.3516 305.18 75.9219 306.07 74.1875L313.523 76.7188C312.211 79.7188 310.078 82.2266 307.125 84.2422C304.172 86.2578 300.492 87.2656 296.086 87.2656C290.414 87.2656 285.773 85.2969 282.164 81.3594C278.602 77.4219 276.82 72.1484 276.82 65.5391ZM285.961 62.5156H305.086C305.086 59.4219 304.266 56.7969 302.625 54.6406C300.984 52.4375 298.688 51.3359 295.734 51.3359C292.781 51.3359 290.414 52.4609 288.633 54.7109C286.898 56.9141 286.008 59.5156 285.961 62.5156ZM321.398 86V45.4297H329.977V49.7891C330.867 48.2891 332.133 46.9766 333.773 45.8516C335.461 44.7266 337.453 44.1641 339.75 44.1641C341.906 44.1641 343.664 44.4688 345.023 45.0781V53.1641C343.242 52.6016 341.484 52.3203 339.75 52.3203C336.703 52.3203 334.359 53.5156 332.719 55.9062C331.125 58.25 330.328 61.3906 330.328 65.3281V86H321.398Z" fill="black"/>
<g clip-path="url(#clip0)">
<path d="M382.667 85.3333L398.021 69.9787L382.667 85.3333ZM398.021 69.9787C399.502 71.4844 401.267 72.6821 403.213 73.5025C405.16 74.3229 407.249 74.7498 409.361 74.7587C411.473 74.7675 413.566 74.3581 415.519 73.554C417.472 72.75 419.247 71.5672 420.74 70.0738C422.234 68.5805 423.417 66.8063 424.222 64.8534C425.026 62.9005 425.436 60.8076 425.428 58.6955C425.42 56.5835 424.993 54.4939 424.173 52.5474C423.353 50.601 422.156 48.8361 420.651 47.3547C417.642 44.3941 413.586 42.7422 409.365 42.7589C405.144 42.7756 401.101 44.4595 398.116 47.4438C395.131 50.428 393.446 54.4709 393.428 58.6918C393.411 62.9126 395.061 66.9695 398.021 69.9787V69.9787ZM452 64C452 70.3035 450.758 76.5452 448.346 82.3688C445.934 88.1924 442.398 93.4839 437.941 97.9411C433.484 102.398 428.192 105.934 422.369 108.346C416.545 110.758 410.303 112 404 112C397.697 112 391.455 110.758 385.631 108.346C379.808 105.934 374.516 102.398 370.059 97.9411C365.602 93.4839 362.066 88.1924 359.654 82.3688C357.242 76.5452 356 70.3035 356 64C356 51.2696 361.057 39.0606 370.059 30.0589C379.061 21.0571 391.27 16 404 16C416.73 16 428.939 21.0571 437.941 30.0589C446.943 39.0606 452 51.2696 452 64Z" stroke="#5A67D8" stroke-width="2" stroke-linecap="round" stroke-linejoin="round"/>
</g>
<defs>
<clipPath id="clip0">
<rect width="128" height="128" fill="white" transform="translate(333)"/>
</clipPath>
</defs>
</svg>
